<?xml version="1.0" encoding="UTF-8"?><svg xmlns="http://www.w3.org/2000/svg" xmlns:xlink="http://www.w3.org/1999/xlink" contentScriptType="text/ecmascript" width="375" zoomAndPan="magnify" contentStyleType="text/css" viewBox="0 0 375 374.999991" height="374.999991" preserveAspectRatio="xMidYMid meet" version="1.0"><defs><clipPath id="clip-0"><path d="M 112.5 130.21875 L 262.5 130.21875 L 262.5 244.96875 L 112.5 244.96875 Z M 112.5 130.21875 " clip-rule="nonzero"/></clipPath></defs><rect x="-37.5" width="450" fill="rgb(100%, 100%, 100%)" y="-37.499999" height="449.999989" fill-opacity="1"/><rect x="-37.5" width="450" fill="rgb(100%, 100%, 100%)" y="-37.499999" height="449.999989" fill-opacity="1"/><rect x="-37.5" width="450" fill="rgb(100%, 100%, 100%)" y="-37.499999" height="449.999989" fill-opacity="1"/><g clip-path="url(#clip-0)"><path fill="rgb(25.099182%, 63.529968%, 71.759033%)" d="M 252.234375 195.777344 C 242.636719 207.210938 226.503906 214.035156 209.082031 214.035156 L 192.578125 214.035156 C 176.960938 214.035156 162.382812 208.546875 152.617188 199.175781 L 151.433594 186.96875 L 259.628906 186.96875 Z M 209.886719 180.921875 C 214.039062 179.59375 219.53125 179.710938 223.554688 181.214844 C 228.390625 183.023438 233.09375 184.3125 236.964844 185.207031 L 164.695312 185.207031 C 168.566406 184.3125 173.269531 183.023438 178.109375 181.214844 C 182.128906 179.710938 187.621094 179.59375 191.773438 180.921875 C 192.160156 181.042969 192.5 181.15625 192.808594 181.261719 C 194.582031 181.851562 195.472656 182.148438 198.339844 182.152344 C 199.160156 182.210938 199.992188 182.246094 200.832031 182.246094 C 204.046875 182.246094 207.179688 181.789062 209.886719 180.921875 Z M 216.777344 177.390625 C 216.851562 177.703125 216.972656 177.996094 217.125 178.261719 C 214.429688 178.171875 211.691406 178.492188 209.351562 179.242188 C 208.652344 179.464844 207.921875 179.65625 207.164062 179.820312 C 208.136719 179.113281 209 178.246094 209.710938 177.230469 L 212.296875 173.523438 C 213.875 171.273438 214.441406 168.441406 213.84375 165.753906 L 212.960938 161.789062 C 212.792969 161.027344 213.109375 160.246094 213.730469 159.882812 C 214.144531 159.644531 214.625 159.589844 215.085938 159.730469 C 215.386719 159.824219 215.667969 160.023438 215.910156 160.308594 L 219.984375 165.167969 C 220.492188 165.773438 220.507812 166.660156 220.023438 167.285156 L 218.546875 169.175781 C 216.730469 171.515625 216.082031 174.507812 216.777344 177.390625 Z M 210.753906 166.445312 L 209.847656 162.390625 C 209.300781 159.941406 210.753906 157.441406 213.144531 156.699219 C 215.015625 156.117188 217.03125 156.714844 218.289062 158.214844 L 222.410156 163.128906 C 223.871094 164.871094 223.921875 167.4375 222.523438 169.234375 L 221.046875 171.128906 C 219.785156 172.753906 219.34375 174.914062 219.875 176.90625 L 220 177.375 C 220.113281 177.804688 220.28125 178.214844 220.492188 178.597656 C 219.863281 178.492188 219.226562 178.410156 218.578125 178.351562 C 218.199219 178.050781 217.921875 177.636719 217.804688 177.144531 C 217.183594 174.574219 217.761719 171.910156 219.382812 169.828125 L 220.855469 167.933594 C 221.644531 166.921875 221.617188 165.472656 220.792969 164.488281 L 216.71875 159.628906 C 216.347656 159.1875 215.890625 158.871094 215.394531 158.722656 C 214.652344 158.492188 213.875 158.582031 213.207031 158.96875 C 212.183594 159.558594 211.660156 160.808594 211.929688 162.015625 L 212.8125 165.984375 C 213.347656 168.382812 212.84375 170.90625 211.429688 172.917969 L 208.84375 176.621094 C 207.613281 178.382812 205.878906 179.664062 203.921875 180.328125 C 203.800781 180.339844 203.679688 180.347656 203.554688 180.359375 C 203.714844 180.183594 203.867188 179.996094 204.007812 179.796875 L 209.703125 171.695312 C 210.773438 170.175781 211.15625 168.261719 210.753906 166.445312 Z M 150.421875 176.496094 L 169.4375 156.390625 C 175.777344 149.683594 186.011719 148.953125 193.242188 154.691406 C 197.710938 158.238281 203.949219 158.238281 208.417969 154.691406 C 215.648438 148.953125 225.882812 149.683594 232.222656 156.390625 L 259.472656 185.207031 L 246.660156 185.207031 C 245.871094 185.109375 235.414062 183.769531 224.167969 179.5625 C 224.167969 179.5625 224.144531 179.554688 224.144531 179.554688 C 222.933594 179.101562 222.019531 178.117188 221.699219 176.917969 L 221.578125 176.449219 C 221.1875 174.988281 221.507812 173.40625 222.4375 172.210938 L 223.910156 170.316406 C 225.816406 167.871094 225.753906 164.371094 223.757812 161.992188 L 219.636719 157.082031 C 217.925781 155.035156 215.171875 154.226562 212.625 155.015625 C 209.363281 156.023438 207.386719 159.433594 208.128906 162.777344 L 209.03125 166.828125 C 209.328125 168.160156 209.050781 169.566406 208.265625 170.679688 L 202.566406 178.78125 C 201.828125 179.832031 200.609375 180.433594 199.335938 180.410156 C 198.925781 180.398438 198.589844 180.390625 198.425781 180.390625 C 196.25 180.222656 194.167969 179.835938 192.308594 179.242188 C 187.808594 177.800781 181.855469 177.929688 177.492188 179.5625 C 166.253906 183.765625 155.785156 185.109375 155 185.207031 L 151.265625 185.207031 Z M 150.859375 210.851562 L 138.8125 210.851562 L 140.984375 188.460938 L 148.078125 196.910156 C 148.613281 197.550781 149.171875 198.171875 149.75 198.78125 L 150.914062 210.851562 Z M 142.453125 173.3125 C 142.683594 172.953125 143.375 172.054688 144.882812 171.082031 C 146.339844 172.027344 147.03125 172.898438 147.28125 173.265625 L 147.628906 176.886719 L 141.476562 183.394531 Z M 147.855469 179.210938 L 148.433594 185.207031 L 142.1875 185.207031 Z M 148.605469 186.96875 L 149.460938 195.816406 C 149.449219 195.804688 149.4375 195.789062 149.425781 195.777344 L 142.03125 186.96875 Z M 155.023438 213.671875 C 165.628906 213.671875 174.253906 222.3125 174.253906 232.9375 C 174.253906 238.007812 170.136719 242.128906 165.078125 242.128906 C 160.597656 242.128906 156.800781 238.929688 156.035156 234.511719 L 154.015625 213.671875 Z M 133.6875 234.511719 C 132.921875 238.929688 129.125 242.128906 124.644531 242.128906 C 119.582031 242.128906 115.464844 238.007812 115.464844 232.9375 C 115.464844 222.3125 124.09375 213.671875 134.699219 213.671875 L 135.707031 213.671875 Z M 262.390625 186.085938 C 262.390625 186.039062 262.394531 185.992188 262.386719 185.945312 C 262.378906 185.90625 262.363281 185.867188 262.351562 185.828125 C 262.339844 185.789062 262.332031 185.75 262.316406 185.714844 C 262.316406 185.710938 262.3125 185.707031 262.3125 185.703125 C 262.292969 185.671875 262.269531 185.644531 262.25 185.613281 C 262.222656 185.570312 262.199219 185.527344 262.167969 185.492188 C 262.164062 185.488281 262.160156 185.484375 262.15625 185.480469 L 233.503906 155.179688 C 230.152344 151.636719 225.632812 149.496094 220.777344 149.148438 C 215.917969 148.804688 211.140625 150.28125 207.324219 153.308594 C 203.5 156.347656 198.160156 156.347656 194.335938 153.308594 C 190.519531 150.28125 185.738281 148.804688 180.882812 149.148438 C 176.027344 149.496094 171.507812 151.636719 168.15625 155.179688 L 150.195312 174.171875 L 150.089844 173.050781 L 150.089844 172.578125 L 149.964844 172.304688 C 149.875 172.09375 149.320312 170.96875 147.726562 169.65625 C 148.15625 169.488281 148.605469 169.328125 149.097656 169.175781 L 150.132812 168.851562 L 148.554688 130.214844 L 145.742188 130.328125 L 147.230469 166.828125 C 146.351562 167.144531 145.570312 167.484375 144.878906 167.832031 C 144.1875 167.484375 143.410156 167.144531 142.53125 166.828125 L 144.019531 130.328125 L 141.203125 130.214844 L 139.628906 168.851562 L 140.660156 169.175781 C 141.152344 169.328125 141.605469 169.488281 142.03125 169.65625 C 140.441406 170.96875 139.886719 172.09375 139.792969 172.304688 L 139.699219 172.511719 L 135.980469 210.851562 L 131.613281 210.851562 L 131.613281 211.070312 C 120.910156 212.578125 112.648438 221.808594 112.648438 232.9375 C 112.648438 239.5625 118.027344 244.953125 124.644531 244.953125 C 130.519531 244.953125 135.496094 240.738281 136.472656 234.933594 L 138.539062 213.671875 L 151.1875 213.671875 L 153.234375 234.835938 L 153.25 234.933594 C 154.226562 240.738281 159.199219 244.953125 165.078125 244.953125 C 171.691406 244.953125 177.070312 239.5625 177.070312 232.9375 C 177.070312 220.757812 167.179688 210.851562 155.023438 210.851562 L 153.746094 210.851562 L 152.867188 201.800781 C 162.921875 210.65625 177.273438 215.800781 192.578125 215.800781 L 209.082031 215.800781 C 227.019531 215.800781 243.652344 208.738281 253.582031 196.910156 L 262.191406 186.65625 L 262.191406 186.652344 C 262.246094 186.589844 262.292969 186.515625 262.324219 186.4375 C 262.324219 186.4375 262.328125 186.4375 262.328125 186.433594 C 262.335938 186.414062 262.335938 186.390625 262.34375 186.367188 C 262.363281 186.3125 262.382812 186.253906 262.390625 186.195312 C 262.394531 186.15625 262.390625 186.125 262.390625 186.085938 " fill-opacity="1" fill-rule="nonzero"/></g></svg>