<?xml version="1.0" encoding="UTF-8"?><svg xmlns="http://www.w3.org/2000/svg" xmlns:xlink="http://www.w3.org/1999/xlink" contentScriptType="text/ecmascript" width="375" zoomAndPan="magnify" contentStyleType="text/css" viewBox="0 0 375 374.999991" height="374.999991" preserveAspectRatio="xMidYMid meet" version="1.0"><defs><clipPath id="clip-0"><path d="M 187 97.820312 L 250.527344 97.820312 L 250.527344 218.570312 L 187 218.570312 Z M 187 97.820312 " clip-rule="nonzero"/></clipPath><clipPath id="clip-1"><path d="M 124.527344 97.820312 L 188 97.820312 L 188 218.570312 L 124.527344 218.570312 Z M 124.527344 97.820312 " clip-rule="nonzero"/></clipPath></defs><g clip-path="url(#clip-0)"><path fill="rgb(31.759644%, 67.83905%, 89.7995%)" d="M 187.539062 97.824219 L 187.539062 106.09375 C 190.335938 106.589844 197.632812 108 206.804688 110.660156 C 216.246094 113.398438 229.457031 118 241.5 124.914062 C 240.128906 131.515625 237.097656 143.707031 231.28125 157.203125 C 226.277344 168.816406 220.210938 179.113281 213.253906 187.8125 C 209.4375 192.589844 205.339844 196.890625 200.984375 200.6875 C 197.429688 203.796875 191.867188 201.199219 191.933594 196.476562 C 192.179688 179.289062 192.9375 159.085938 195.121094 156.640625 C 196.652344 154.925781 199.074219 155.121094 201.449219 155.984375 C 203.726562 156.8125 204.417969 159.691406 202.757812 161.453125 C 202.738281 161.46875 202.726562 161.484375 202.710938 161.5 C 196.453125 168.144531 201.109375 176.210938 208.820312 175.28125 C 217.867188 174.191406 225.316406 164.863281 225.316406 152.015625 C 225.316406 139.160156 217.933594 128.746094 208.820312 128.746094 C 202.246094 128.746094 195.625 133.292969 198.007812 142.1875 C 199.238281 146.792969 203.277344 148.917969 205.671875 151.140625 C 202.011719 150.65625 197.484375 150.457031 194.914062 151.824219 C 189.554688 154.679688 189.226562 190.085938 189.445312 209.234375 C 189.492188 213.175781 189.558594 216.429688 189.613281 218.566406 C 190.363281 218.15625 191.105469 217.738281 191.835938 217.308594 C 241.191406 188.445312 250.523438 120.863281 250.523438 120.863281 C 223.289062 103.292969 187.539062 97.824219 187.539062 97.824219 " fill-opacity="1" fill-rule="nonzero"/></g><g clip-path="url(#clip-1)"><path fill="rgb(31.759644%, 67.83905%, 89.7995%)" d="M 153.070312 153.671875 C 152.871094 155.773438 152.886719 157.796875 153.09375 159.71875 C 152.460938 157.46875 152.113281 155.003906 152.113281 152.375 C 152.113281 140.800781 158.765625 131.417969 166.972656 131.417969 C 169.375 131.417969 171.789062 132.09375 173.660156 133.433594 C 172.800781 133.171875 171.90625 132.996094 171.011719 132.910156 C 162.285156 132.070312 154.253906 141.367188 153.070312 153.671875 Z M 124.550781 120.863281 C 124.550781 120.863281 133.886719 188.445312 183.242188 217.308594 C 183.515625 217.46875 183.789062 217.625 184.0625 217.78125 C 184.527344 218.046875 184.992188 218.308594 185.464844 218.566406 C 185.519531 216.429688 185.585938 213.175781 185.632812 209.234375 C 185.851562 190.085938 185.523438 154.679688 180.160156 151.824219 C 177.59375 150.457031 173.066406 150.65625 169.402344 151.140625 C 171.800781 148.917969 175.839844 146.792969 177.070312 142.1875 C 179.453125 133.292969 172.832031 128.742188 166.257812 128.742188 C 157.144531 128.742188 149.761719 139.160156 149.761719 152.015625 C 149.761719 164.863281 157.210938 174.191406 166.257812 175.28125 C 173.96875 176.210938 178.625 168.144531 172.367188 161.5 C 172.351562 161.484375 172.335938 161.46875 172.320312 161.453125 C 170.660156 159.691406 171.351562 156.8125 173.625 155.984375 C 176 155.121094 178.425781 154.925781 179.957031 156.640625 C 182.140625 159.085938 182.898438 179.289062 183.144531 196.472656 C 183.210938 201.199219 177.648438 203.792969 174.085938 200.683594 C 169.679688 196.835938 165.53125 192.472656 161.667969 187.625 C 154.699219 178.863281 148.625 168.496094 143.625 156.8125 C 137.890625 143.40625 134.917969 131.429688 133.570312 124.917969 C 145.613281 118.003906 158.832031 113.398438 168.273438 110.660156 C 177.441406 108 184.738281 106.589844 187.539062 106.09375 L 187.539062 97.824219 C 187.539062 97.824219 151.789062 103.292969 124.550781 120.863281 " fill-opacity="1" fill-rule="nonzero"/></g></svg>